# Blender 4.2.0
# www.blender.org
o Bear
v 0.434361 -0.016428 0.504102
v 0.676471 -0.016428 0.745347
v 0.432627 -0.016428 0.984876
v 0.190516 -0.016428 0.743631
v 0.434149 0.210199 0.457719
v 0.588462 0.210199 0.640041
v 0.432839 0.210199 0.821127
v 0.260782 0.210199 0.638746
v 0.154656 0.530506 0.670976
v 0.432499 0.530506 0.947826
v 0.640010 0.530506 0.672945
v 0.434489 0.530506 0.396096
v -0.429445 0.530506 0.396096
v -0.151602 0.530506 0.672945
v -0.431435 0.530506 0.947826
v -0.636957 0.530506 0.670976
v -0.585408 0.210199 0.638805
v -0.431095 0.210199 0.821127
v -0.257728 0.210199 0.640100
v -0.429785 0.210199 0.457719
v -0.673418 -0.016428 0.743631
v -0.431307 -0.016428 0.984876
v -0.187462 -0.016428 0.745347
v -0.429573 -0.016428 0.504102
v -0.429573 -0.016428 -0.993169
v -0.187462 -0.016428 -0.751924
v -0.431307 -0.016428 -0.512395
v -0.673418 -0.016428 -0.753639
v -0.429785 0.210199 -1.002711
v -0.246778 0.210199 -0.820359
v -0.431096 0.210199 -0.639303
v -0.614103 0.210199 -0.821655
v -0.709278 0.560296 -0.611108
v -0.431435 0.560296 -0.334258
v -0.151602 0.560296 -0.609139
v -0.429445 0.560296 -0.885988
v 0.434489 0.560296 -0.885988
v 0.712332 0.560296 -0.609139
v 0.432499 0.560296 -0.334258
v 0.154656 0.560296 -0.611108
v 0.249831 0.210199 -0.821656
v 0.432839 0.210199 -0.639303
v 0.617156 0.210199 -0.820359
v 0.434149 0.210199 -1.002711
v 0.190516 -0.016428 -0.753639
v 0.432627 -0.016428 -0.512395
v 0.676471 -0.016428 -0.751924
v 0.434361 -0.016428 -0.993169
v -0.623971 1.077281 0.692720
v -0.308217 0.865335 1.003860
v -0.133506 0.617113 0.638279
v -0.369111 0.875724 0.335533
v 0.373374 0.876691 0.335533
v 0.627025 1.077281 0.695681
v 0.305920 0.864905 1.003860
v 0.136559 0.617113 0.636566
v 0.167374 0.795511 -0.523206
v 0.436802 0.949308 -0.243582
v 0.707001 1.143938 -0.495061
v 0.432458 0.961806 -0.898881
v -0.427795 0.960685 -0.898881
v -0.164320 0.795511 -0.520472
v -0.435168 0.950444 -0.243582
v -0.703917 1.143938 -0.498098
v 0.000559 0.548380 0.641083
v 0.000559 0.705616 -0.586094
v -0.217860 0.697756 0.070471
v -0.402139 0.930554 0.067813
v 0.220914 0.697756 0.067825
v 0.405088 0.930470 0.067813
v 0.000559 0.636822 0.069104
v 0.469436 1.151587 0.041547
v -0.466488 1.151660 0.041547
v 0.000467 0.905851 -0.971764
v -0.322583 1.389540 -0.025950
v 0.325560 1.389455 -0.025950
v -0.422311 1.358216 -0.604473
v 0.425380 1.359139 -0.601659
v 0.441325 1.482237 0.623125
v -0.438593 1.482237 0.619658
v 0.000449 1.693201 0.499480
v 0.000467 1.545170 -0.621130
v 0.000559 1.474946 -0.065026
v 0.000467 1.340824 -0.942584
v 0.325564 1.177113 -0.854590
v -0.322496 1.176408 -0.856742
v 0.000449 1.532115 0.879044
v 0.286037 1.357622 0.901019
v 0.000559 0.804457 1.108138
v -0.292350 1.357622 0.901019
v -0.171968 1.113146 1.646323
v -0.000326 0.852973 1.637301
v 0.167308 1.113146 1.646323
v -0.000326 1.210860 1.649321
v 0.182037 0.900666 1.609735
v -0.184501 0.900920 1.609775
v -0.107179 0.907009 1.820296
v 0.104661 0.906863 1.820272
v -0.000735 1.080085 1.873897
v 0.096148 1.023612 1.872164
v -0.000735 0.890446 1.834811
v -0.099935 1.023612 1.872164
v -0.382776 0.864474 1.422593
v 0.380478 0.863947 1.422510
v 0.000921 1.472485 1.544140
v 0.305757 1.332252 1.467830
v 0.000920 0.779740 1.482387
v -0.313075 1.332251 1.467831
v -0.312028 1.403876 1.179852
v 0.000920 0.761492 1.263028
v 0.304710 1.403876 1.179852
v 0.000921 1.550471 1.168611
v 0.408432 0.880536 1.183036
v -0.410730 0.881109 1.183036
v 0.370173 1.088499 1.296906
v 0.315840 1.372195 1.298208
v 0.518776 1.320272 1.339334
v 0.542172 1.223073 1.338825
v 0.521540 1.237020 1.234245
v 0.502272 1.336362 1.234665
v 0.314715 1.380255 1.193437
v 0.363991 1.126192 1.192363
v -0.370304 1.126192 1.192363
v -0.321028 1.380255 1.193437
v -0.508585 1.336362 1.234665
v -0.527853 1.237020 1.234245
v -0.548484 1.223073 1.338825
v -0.525088 1.320272 1.339334
v -0.322153 1.372195 1.298208
v -0.376486 1.088499 1.296906
vn 0.0134 -0.6350 -0.7724
vn 0.8888 -0.4374 0.1368
vn 0.0029 -0.3340 0.9426
vn -0.8833 -0.4486 0.1364
vn 0.0402 -0.1659 -0.9853
vn 0.9920 0.0066 -0.1263
vn 0.0352 0.2028 0.9786
vn -0.9879 -0.0678 -0.1392
vn -0.9386 -0.3404 0.0555
vn 0.1302 -0.1677 -0.9772
vn 0.1057 -0.2363 0.9659
vn 0.9970 -0.0658 0.0397
vn 0.9890 -0.0664 -0.1320
vn -0.0337 -0.1661 -0.9855
vn -0.1225 -0.1687 -0.9780
vn 0.9391 -0.3376 0.0638
vn -0.0437 0.2031 0.9782
vn -0.1118 -0.2344 0.9657
vn -0.9910 0.0052 -0.1336
vn -0.9973 -0.0661 0.0316
vn -0.0065 -0.6350 -0.7724
vn -0.8892 -0.4384 0.1307
vn -0.0089 -0.3340 0.9425
vn 0.8828 -0.4476 0.1424
vn 0.0033 -0.5935 -0.8048
vn 0.8775 -0.4692 0.0992
vn -0.0030 -0.3883 0.9215
vn -0.8778 -0.4699 0.0931
vn 0.0029 0.1294 -0.9916
vn 0.9771 0.0574 -0.2049
vn -0.0045 -0.1456 0.9893
vn -0.9756 0.0583 -0.2115
vn -0.9811 -0.1855 0.0556
vn 0.0078 0.2335 -0.9723
vn -0.0188 -0.4172 0.9086
vn 0.9807 -0.1910 0.0426
vn 0.0005 0.2333 -0.9724
vn 0.9803 -0.1875 0.0615
vn 0.0113 -0.4172 0.9087
vn -0.9812 -0.1892 0.0367
vn -0.9639 0.1666 0.2078
vn -0.7829 -0.5017 -0.3679
vn -0.7104 -0.5246 0.4692
vn 0.1729 -0.9843 0.0367
vn 0.7842 -0.5002 -0.3671
vn 0.9614 0.1695 0.2167
vn 0.7069 -0.5243 0.4748
vn -0.1728 -0.9845 0.0304
vn -0.2033 -0.9742 -0.0976
vn 0.4103 0.0153 -0.9118
vn 0.7145 -0.5596 0.4200
vn 0.9565 0.2909 -0.0240
vn -0.4078 0.0119 -0.9130
vn 0.1975 -0.9762 -0.0896
vn -0.7166 -0.5575 0.4191
vn -0.9562 0.2914 -0.0277
vn -0.7983 -0.6015 -0.0300
vn -0.5695 -0.8173 -0.0878
vn 0.5676 -0.8186 -0.0884
vn 0.7986 -0.6012 -0.0296
vn -0.0026 -0.9909 -0.1347
vn -0.0006 -0.9861 0.1661
vn -0.0014 -0.9652 -0.2614
vn -0.9977 0.0664 0.0154
vn 0.9977 0.0662 0.0163
vn -0.0003 -0.5153 -0.8570
vn 0.5717 0.7722 -0.2772
vn 0.5947 0.8021 -0.0548
vn 0.6893 0.6988 0.1912
vn -0.6908 0.6992 0.1839
vn -0.5955 0.8014 -0.0560
vn -0.5728 0.7705 -0.2797
vn -0.0009 0.9949 -0.1010
vn -0.0007 0.9619 -0.2734
vn -0.0005 0.9994 0.0335
vn 0.4398 0.4460 -0.7795
vn -0.0001 0.5535 -0.8328
vn -0.4395 0.4423 -0.7818
vn 0.7332 0.6179 0.2840
vn 0.0021 0.9767 0.2144
vn -0.7373 0.6161 0.2770
vn 0.0004 -0.9944 0.1055
vn 0.6898 0.2995 0.6591
vn 0.0043 0.6206 0.7841
vn 0.0037 0.5146 0.8574
vn 0.5580 0.1593 0.8144
vn -0.6871 0.2970 0.6631
vn -0.5578 0.1606 0.8143
vn -0.6374 -0.5677 0.5210
vn -0.5679 -0.5826 0.5815
vn 0.0003 -0.9547 0.2975
vn 0.0001 -0.7503 0.6611
vn 0.6398 -0.5623 0.5238
vn 0.5711 -0.5791 0.5818
vn 0.7416 0.4805 0.4681
vn 0.0053 0.7929 0.6094
vn -0.7408 0.4803 0.4695
vn -0.7855 -0.5248 0.3279
vn 0.0014 -0.9677 0.2523
vn 0.7881 -0.5205 0.3288
vn 0.8728 -0.4768 -0.1042
vn 0.7918 0.6104 -0.0220
vn 0.0006 -0.9986 -0.0524
vn -0.8704 -0.4811 -0.1047
vn -0.7907 0.6118 -0.0226
vn 0.0059 0.9992 0.0398
vn 0.0738 0.7941 0.6033
vn 0.4751 -0.7739 0.4187
vn 0.7398 -0.3241 0.5896
vn 0.5457 0.5098 0.6651
vn 0.5950 0.6139 -0.5188
vn 0.3120 0.7623 -0.5671
vn 0.7578 -0.2131 -0.6167
vn 0.5413 -0.4825 -0.6886
vn -0.7578 -0.2131 -0.6167
vn -0.5950 0.6139 -0.5188
vn -0.3120 0.7623 -0.5671
vn -0.5413 -0.4825 -0.6886
vn -0.7398 -0.3241 0.5896
vn -0.4751 -0.7739 0.4187
vn -0.5457 0.5098 0.6651
vn -0.0738 0.7941 0.6033
vt 0.156600 0.853548
vt 0.219704 0.789078
vt 0.283498 0.852874
vt 0.220395 0.917344
vt 0.898338 0.761583
vt 0.894165 0.807122
vt 0.837906 0.795803
vt 0.837347 0.735598
vt 0.772465 0.788291
vt 0.770307 0.718805
vt 0.708194 0.790773
vt 0.704034 0.739591
vt 0.963038 0.755828
vt 0.943477 0.801079
vt 0.972487 0.859652
vt 0.896946 0.872874
vt 0.762633 0.872672
vt 0.688816 0.855569
vt 0.830034 0.870563
vt 0.383072 0.812350
vt 0.433717 0.816008
vt 0.434227 0.883279
vt 0.356436 0.873607
vt 0.556821 0.790509
vt 0.622483 0.789698
vt 0.645674 0.854800
vt 0.571262 0.876031
vt 0.490468 0.801607
vt 0.502336 0.877403
vt 0.427042 0.769762
vt 0.488009 0.740233
vt 0.555515 0.719535
vt 0.624202 0.737242
vt 0.360727 0.767173
vt 0.087674 0.784621
vt 0.150777 0.720151
vt 0.214572 0.783947
vt 0.151468 0.848417
vt 0.087961 0.921092
vt 0.151065 0.856621
vt 0.214860 0.920417
vt 0.151757 0.984887
vt 0.782171 0.165780
vt 0.779514 0.207255
vt 0.732074 0.204728
vt 0.718285 0.161115
vt 0.983922 0.187861
vt 0.973671 0.234682
vt 0.907020 0.228796
vt 0.918065 0.163829
vt 0.835950 0.217025
vt 0.847501 0.164414
vt 0.836192 0.310205
vt 0.764837 0.281519
vt 0.898537 0.335741
vt 0.967188 0.322807
vt 0.684466 0.269738
vt 0.842469 0.503990
vt 0.899806 0.505205
vt 0.899822 0.580906
vt 0.824390 0.595526
vt 0.770382 0.501869
vt 0.758327 0.608526
vt 0.703815 0.494813
vt 0.693467 0.582555
vt 0.946852 0.511799
vt 0.980937 0.584687
vt 0.905089 0.463995
vt 0.968661 0.471643
vt 0.772110 0.435953
vt 0.702832 0.446901
vt 0.841268 0.450054
vt 0.019439 0.852857
vt 0.082542 0.788387
vt 0.146338 0.852182
vt 0.083235 0.916653
vt 0.513142 0.986079
vt 0.424155 0.953583
vt 0.602081 0.962976
vt 0.657783 0.870164
vt 0.356436 0.892581
vt 0.910423 0.941245
vt 0.824813 0.977313
vt 0.736427 0.959205
vt 0.677757 0.871173
vt 0.973490 0.878177
vt 0.990162 0.630651
vt 0.911370 0.666538
vt 0.757099 0.681304
vt 0.690406 0.632859
vt 0.829184 0.705716
vt 0.737309 0.363221
vt 0.666432 0.313082
vt 0.960439 0.372802
vt 0.885794 0.407609
vt 0.810218 0.417436
vt 0.407231 0.626632
vt 0.461259 0.606023
vt 0.468607 0.667935
vt 0.350927 0.707089
vt 0.522019 0.595100
vt 0.584837 0.635472
vt 0.354848 0.050506
vt 0.472563 0.089613
vt 0.464662 0.151171
vt 0.410778 0.131018
vt 0.587800 0.122336
vt 0.525077 0.161628
vt 0.480221 0.715724
vt 0.352481 0.740662
vt 0.613697 0.664873
vt 0.356027 0.016478
vt 0.483859 0.041482
vt 0.616201 0.093102
vt 0.461978 0.554158
vt 0.559253 0.550926
vt 0.333586 0.580380
vt 0.465481 0.202824
vt 0.337095 0.176859
vt 0.561553 0.205483
vt 0.675054 0.163343
vt 0.611198 0.185612
vt 0.609066 0.571421
vt 0.674544 0.594190
vt 0.585906 0.242975
vt 0.476535 0.267560
vt 0.334232 0.255077
vt 0.330776 0.501818
vt 0.472847 0.489150
vt 0.584405 0.512506
vt 0.490832 0.413629
vt 0.622639 0.444233
vt 0.341878 0.386497
vt 0.495484 0.343829
vt 0.345518 0.371542
vt 0.628508 0.310120
vt 0.621533 0.214402
vt 0.675054 0.249456
vt 0.674544 0.503846
vt 0.619765 0.542485
vt 0.258712 0.259545
vt 0.251022 0.130869
vt 0.242717 0.344881
vt 0.255810 0.498510
vt 0.239885 0.412271
vt 0.247994 0.626080
vt 0.220992 0.704137
vt 0.224172 0.053234
vt 0.078863 0.183139
vt 0.046493 0.220334
vt 0.012478 0.163457
vt 0.035733 0.150957
vt 0.077200 0.573555
vt 0.034069 0.605350
vt 0.010478 0.592722
vt 0.044301 0.535949
vt 0.095100 0.624260
vt 0.046196 0.624419
vt 0.069739 0.668188
vt 0.025463 0.640010
vt 0.072153 0.088500
vt 0.097323 0.132221
vt 0.048140 0.131883
vt 0.027608 0.116322
vt 0.132940 0.227342
vt 0.082596 0.289295
vt 0.080390 0.467196
vt 0.131344 0.530201
vt 0.148683 0.614270
vt 0.108608 0.689454
vt 0.111459 0.067764
vt 0.151187 0.142296
vt 0.197645 0.146731
vt 0.188645 0.254307
vt 0.169526 0.052383
vt 0.195007 0.610054
vt 0.166501 0.704945
vt 0.186419 0.503677
vt 0.169421 0.425832
vt 0.171888 0.330917
vt 0.953425 0.042663
vt 0.952359 0.123048
vt 0.897454 0.094485
vt 0.899096 0.066708
vt 0.860938 0.028275
vt 0.874529 0.067904
vt 0.839032 0.047099
vt 0.874155 0.086329
vt 0.857411 0.131550
vt 0.839032 0.109536
vt 0.737663 0.069208
vt 0.737792 0.087647
vt 0.701999 0.107988
vt 0.702833 0.045523
vt 0.761082 0.061358
vt 0.721514 0.023743
vt 0.762356 0.089171
vt 0.723665 0.127114
vt 0.816396 0.113950
vt 0.816396 0.033507
s 1
f 1/1/1 2/2/2 3/3/3 4/4/4
f 1/5/1 5/6/5 6/7/6 2/8/2
f 2/8/2 6/7/6 7/9/7 3/10/3
f 3/10/3 7/9/7 8/11/8 4/12/4
f 5/6/5 1/5/1 4/13/4 8/14/8
f 5/6/5 8/14/8 9/15/9 12/16/10
f 8/11/8 7/9/7 10/17/11 9/18/9
f 7/9/7 6/7/6 11/19/12 10/17/11
f 6/7/6 5/6/5 12/16/10 11/19/12
f 19/20/13 20/21/14 13/22/15 14/23/16
f 18/24/17 19/25/13 14/26/16 15/27/18
f 17/28/19 18/24/17 15/27/18 16/29/20
f 20/21/14 17/28/19 16/29/20 13/22/15
f 20/21/14 24/30/21 21/31/22 17/28/19
f 22/32/23 18/24/17 17/28/19 21/31/22
f 23/33/24 19/25/13 18/24/17 22/32/23
f 24/30/21 20/21/14 19/20/13 23/34/24
f 24/35/21 23/36/24 22/37/23 21/38/22
f 25/39/25 26/40/26 27/41/27 28/42/28
f 25/43/25 29/44/29 30/45/30 26/46/26
f 26/47/26 30/48/30 31/49/31 27/50/27
f 27/50/27 31/49/31 32/51/32 28/52/28
f 29/44/29 25/43/25 28/52/28 32/51/32
f 29/44/29 32/51/32 33/53/33 36/54/34
f 32/51/32 31/49/31 34/55/35 33/53/33
f 31/49/31 30/48/30 35/56/36 34/55/35
f 30/45/30 29/44/29 36/54/34 35/57/36
f 43/58/30 44/59/29 37/60/37 38/61/38
f 42/62/31 43/58/30 38/61/38 39/63/39
f 41/64/32 42/62/31 39/63/39 40/65/40
f 44/59/29 41/66/32 40/67/40 37/60/37
f 44/59/29 48/68/25 45/69/28 41/66/32
f 46/70/27 42/62/31 41/64/32 45/71/28
f 47/72/26 43/58/30 42/62/31 46/70/27
f 48/68/25 44/59/29 43/58/30 47/72/26
f 48/73/25 47/74/26 46/75/27 45/76/28
f 13/22/15 16/29/20 49/77/41 52/78/42
f 16/29/20 15/27/18 50/79/43 49/77/41
f 15/27/18 14/26/16 51/80/44 50/79/43
f 14/23/16 13/22/15 52/78/42 51/81/44
f 11/19/12 12/16/10 53/82/45 54/83/46
f 10/17/11 11/19/12 54/83/46 55/84/47
f 9/18/9 10/17/11 55/84/47 56/85/48
f 12/16/10 9/15/9 56/86/48 53/82/45
f 37/60/37 40/67/40 57/87/49 60/88/50
f 40/65/40 39/63/39 58/89/51 57/90/49
f 39/63/39 38/61/38 59/91/52 58/89/51
f 38/61/38 37/60/37 60/88/50 59/91/52
f 35/57/36 36/54/34 61/92/53 62/93/54
f 34/55/35 35/56/36 62/94/54 63/95/55
f 33/53/33 34/55/35 63/95/55 64/96/56
f 36/54/34 33/53/33 64/96/56 61/92/53
f 52/97/42 68/98/57 67/99/58 51/100/44
f 68/98/57 63/101/55 62/102/54 67/99/58
f 56/103/48 69/104/59 70/105/60 53/106/45
f 69/104/59 57/107/49 58/108/51 70/105/60
f 51/100/44 67/99/58 71/109/61 65/110/62
f 67/99/58 62/102/54 66/111/63 71/109/61
f 65/112/62 71/113/61 69/104/59 56/103/48
f 71/113/61 66/114/63 57/107/49 69/104/59
f 63/101/55 68/98/57 73/115/64 64/116/56
f 49/117/41 73/115/64 68/98/57 52/97/42
f 53/106/45 70/105/60 72/118/65 54/119/46
f 58/108/51 59/120/52 72/118/65 70/105/60
f 57/107/49 66/114/63 74/121/66 60/122/50
f 61/123/53 74/124/66 66/111/63 62/102/54
f 72/118/65 59/120/52 78/125/67 76/126/68
f 54/119/46 72/118/65 76/126/68 79/127/69
f 73/115/64 49/117/41 80/128/70 75/129/71
f 64/116/56 73/115/64 75/129/71 77/130/72
f 77/130/72 75/129/71 83/131/73 82/132/74
f 75/129/71 80/128/70 81/133/75 83/131/73
f 79/127/69 76/126/68 83/134/73 81/135/75
f 76/126/68 78/125/67 82/136/74 83/134/73
f 78/125/67 85/137/76 84/138/77 82/136/74
f 77/130/72 82/132/74 84/139/77 86/140/78
f 59/120/52 60/122/50 85/137/76 78/125/67
f 60/122/50 74/121/66 84/138/77 85/137/76
f 61/123/53 86/140/78 84/139/77 74/124/66
f 61/123/53 64/116/56 77/130/72 86/140/78
f 54/119/46 79/127/69 88/141/79 55/142/47
f 79/127/69 81/135/75 87/143/80 88/141/79
f 80/128/70 90/144/81 87/145/80 81/133/75
f 49/117/41 50/146/43 90/144/81 80/128/70
f 50/146/43 51/100/44 65/110/62 89/147/82
f 55/142/47 89/148/82 65/112/62 56/103/48
f 93/149/83 94/150/84 99/151/85 100/152/86
f 91/153/87 102/154/88 99/155/85 94/156/84
f 91/153/87 96/157/89 97/158/90 102/154/88
f 92/159/91 101/160/92 97/158/90 96/157/89
f 92/161/91 95/162/93 98/163/94 101/164/92
f 93/149/83 100/152/86 98/163/94 95/162/93
f 94/150/84 93/149/83 106/165/95 105/166/96
f 94/156/84 105/167/96 108/168/97 91/153/87
f 96/157/89 91/153/87 108/168/97 103/169/98
f 96/157/89 103/169/98 107/170/99 92/159/91
f 95/162/93 92/161/91 107/171/99 104/172/100
f 95/162/93 104/172/100 106/165/95 93/149/83
f 104/172/100 113/173/101 111/174/102 106/165/95
f 104/172/100 107/171/99 110/175/103 113/173/101
f 103/169/98 114/176/104 110/177/103 107/170/99
f 103/169/98 108/168/97 109/178/105 114/176/104
f 105/167/96 112/179/106 109/178/105 108/168/97
f 105/166/96 106/165/95 111/174/102 112/180/106
f 87/145/80 90/144/81 109/178/105 112/179/106
f 87/143/80 112/180/106 111/174/102 88/141/79
f 50/146/43 114/176/104 109/178/105 90/144/81
f 50/146/43 89/147/82 110/177/103 114/176/104
f 55/142/47 113/173/101 110/175/103 89/148/82
f 55/142/47 88/141/79 111/174/102 113/173/101
f 97/158/90 101/160/92 99/155/85 102/154/88
f 99/151/85 101/164/92 98/163/94 100/152/86
f 116/181/107 115/182/108 118/183/109 117/184/110
f 116/185/107 117/184/110 120/186/111 121/187/112
f 117/184/110 118/183/109 119/188/113 120/186/111
f 118/183/109 115/189/108 122/190/114 119/188/113
f 119/188/113 122/190/114 121/187/112 120/186/111
f 126/191/115 125/192/116 124/193/117 123/194/118
f 127/195/119 126/191/115 123/194/118 130/196/120
f 128/197/121 125/192/116 126/191/115 127/195/119
f 129/198/122 124/193/117 125/192/116 128/197/121
f 129/199/122 128/197/121 127/195/119 130/200/120
