# Blender 4.2.0
# www.blender.org
o Turtle
v 0.358400 0.826159 0.292470
v 0.000000 0.657262 -1.096330
v 0.358400 0.826159 -0.603530
v 0.000000 0.704478 0.784287
v 0.000000 0.971758 -0.715530
v 0.448000 0.971758 -0.155530
v -0.602112 0.412654 -0.908170
v 0.501760 0.505839 0.471670
v -0.602112 0.412655 0.597110
v 0.501760 0.505839 -0.782730
v -0.627200 0.709679 -0.155530
v 0.000000 0.709678 -0.939530
v 0.627200 0.709679 -0.155530
v 0.602112 0.412655 0.597110
v 0.000000 0.709679 0.628470
v 0.602112 0.412654 -0.908170
v -0.501760 0.505839 -0.782730
v 0.752640 0.657262 -0.155530
v -0.501760 0.505839 0.471670
v 0.000000 1.117358 -0.155530
v 0.530085 0.303961 -0.155530
v 0.000000 0.315182 -0.818136
v 0.000000 0.223103 0.647879
v -0.448000 0.971758 -0.155530
v 0.424068 0.336923 -0.685615
v 0.424068 0.336924 0.374555
v 0.000000 0.971758 0.404470
v 0.202924 0.452540 0.646173
v -0.000036 0.244461 0.943076
v -0.358400 0.826159 -0.603530
v 0.237481 0.507688 0.867134
v -0.358400 0.826159 0.292470
v 0.332682 0.517938 1.109678
v 0.602387 0.321339 0.653808
v 0.462394 0.226563 0.921541
v 0.526851 0.283474 0.742836
v 0.516076 0.341282 0.835439
v 1.031369 0.103761 0.522100
v 0.730619 -0.003533 0.963644
v 0.923856 0.036804 0.662985
v 0.842551 0.139025 0.823420
v 0.647927 0.258562 -0.854780
v 0.265909 0.441245 -1.130504
v 0.270601 0.185766 -0.937145
v 0.469156 0.202003 -0.739243
v 0.904698 0.004440 -0.664953
v 0.665293 0.004944 -1.152616
v 0.397658 -0.009585 -1.007493
v 0.537305 -0.010411 -0.623373
v -0.752640 0.657262 -0.155530
v -0.530085 0.303961 -0.155530
v -0.424068 0.336923 -0.685615
v -0.424068 0.336924 0.374555
v 0.000000 0.230636 -0.152705
v -0.202924 0.452540 0.646173
v 0.000000 0.826569 0.897865
v -0.237481 0.507688 0.867134
v 0.000000 0.852598 1.174773
v 0.000000 0.275266 1.183512
v -0.332682 0.517938 1.109678
v 0.000000 0.455603 1.433197
v -0.602387 0.321339 0.653808
v -0.462394 0.226563 0.921541
v -0.526851 0.283474 0.742836
v -0.516076 0.341282 0.835439
v -1.031369 0.103761 0.522100
v -0.730619 -0.003533 0.963644
v -0.923856 0.036804 0.662985
v -0.842551 0.139025 0.823420
v -0.647927 0.258562 -0.854780
v -0.265909 0.441245 -1.130504
v -0.270601 0.185766 -0.937145
v -0.469156 0.202003 -0.739243
v -0.904698 0.004440 -0.664953
v -0.665293 0.004944 -1.152616
v -0.397658 -0.009585 -1.007493
v -0.537305 -0.010411 -0.623373
v 0.627200 0.709679 -0.155530
v 0.501760 0.505839 -0.782730
v 0.000000 0.709678 -0.939530
v 0.501760 0.505839 0.471670
v -0.602112 0.412654 -0.908170
v -0.602112 0.412654 -0.908170
v -0.424068 0.336923 -0.685615
v -0.424068 0.336924 0.374555
v -0.602112 0.412655 0.597110
v -0.602112 0.412655 0.597110
v 0.752640 0.657262 -0.155530
v 0.602112 0.412654 -0.908170
v 0.602112 0.412654 -0.908170
v 0.602112 0.412655 0.597110
v 0.602112 0.412655 0.597110
v 0.602112 0.412655 0.597110
v -0.752640 0.657262 -0.155530
v 0.000000 0.657262 -1.096330
v 0.424068 0.336924 0.374555
v 0.000000 0.704478 0.784287
v 0.000000 0.704478 0.784287
v 0.000000 0.704478 0.784287
v 0.424068 0.336923 -0.685615
v 0.000000 0.315182 -0.818136
v 0.000000 0.223103 0.647879
v 0.000000 0.223103 0.647879
v 0.000000 0.223103 0.647879
v 0.000000 0.223103 0.647879
v -0.627200 0.709679 -0.155530
v -0.501760 0.505839 0.471670
v 0.202924 0.452540 0.646173
v 0.000000 0.709679 0.628470
v -0.501760 0.505839 -0.782730
v 0.602387 0.321339 0.653808
v 0.462394 0.226563 0.921541
v 0.923856 0.036804 0.662985
v 1.031369 0.103761 0.522100
v 0.730619 -0.003533 0.963644
v 0.665293 0.004944 -1.152616
v 0.904698 0.004440 -0.664953
v 0.397658 -0.009585 -1.007493
v 0.537305 -0.010411 -0.623373
v -0.202924 0.452540 0.646173
v -0.665293 0.004944 -1.152616
v -0.904698 0.004440 -0.664953
v -0.397658 -0.009585 -1.007493
v -0.537305 -0.010411 -0.623373
vn -0.0000 -0.9637 0.2669
vn -0.0000 -0.1844 0.9829
vn -0.9741 -0.0304 0.2240
vn -0.0000 0.9479 0.3184
vn -0.0000 0.8302 -0.5574
vn 0.5654 0.6881 -0.4549
vn 0.6210 0.5756 -0.5320
vn -0.0000 0.6497 -0.7602
vn -0.9752 -0.0032 -0.2215
vn -0.0000 0.9311 -0.3646
vn 0.6210 0.7838 -0.0000
vn 0.8255 0.5644 -0.0000
vn 0.5654 0.6881 0.4549
vn 0.6210 0.5756 0.5320
vn -0.9569 -0.2426 -0.1594
vn -0.0000 0.8429 -0.5381
vn -0.9842 -0.0465 0.1707
vn -0.8086 0.3042 -0.5036
vn -0.1476 0.7498 0.6450
vn 0.1038 0.1336 0.9856
vn -0.0664 -0.4380 0.8965
vn 0.3967 0.8599 -0.3214
vn 0.3856 0.9227 -0.0000
vn 0.4039 0.8589 -0.3149
vn 0.4022 0.8781 0.2592
vn 0.4098 0.8799 0.2407
vn 0.7229 -0.6909 -0.0000
vn 0.7226 -0.6906 0.0306
vn 0.4820 -0.8755 0.0343
vn 0.4888 -0.8722 -0.0177
vn -0.7226 -0.6906 -0.0306
vn -0.4590 -0.8856 -0.0714
vn -0.4888 -0.8722 -0.0177
vn -0.7229 -0.6909 -0.0000
vn 0.7226 -0.6906 -0.0306
vn 0.4590 -0.8856 -0.0714
vn -0.4820 -0.8755 0.0343
vn -0.7226 -0.6906 0.0306
vn -0.3856 0.9227 -0.0000
vn -0.4098 0.8799 0.2407
vn -0.4022 0.8781 0.2592
vn 0.1633 -0.4271 0.8893
vn -0.0000 -0.9315 -0.3637
vn -0.7261 -0.6761 -0.1255
vn -0.1559 -0.0942 0.9833
vn -0.0000 0.9858 0.1682
vn -0.3967 0.8599 -0.3214
vn -0.4039 0.8589 -0.3149
vn 0.2941 0.7681 0.5689
vn -0.1038 0.1336 0.9856
vn 0.1476 0.7498 0.6450
vn 0.4062 0.8712 0.2758
vn -0.6210 0.7838 -0.0000
vn -0.8255 0.5644 -0.0000
vn -0.6210 0.5756 0.5320
vn -0.5654 0.6881 0.4549
vn -0.0000 0.6497 0.7602
vn -0.0000 0.8302 0.5574
vn -0.0000 -0.9974 0.0723
vn 0.9569 -0.2426 -0.1593
vn 0.9752 -0.0033 -0.2215
vn -0.0001 -0.9998 -0.0186
vn 0.9741 -0.0304 0.2240
vn -0.5654 0.6881 -0.4549
vn -0.6210 0.5756 -0.5320
vn -0.0000 1.0000 -0.0000
vn 0.7042 0.4271 0.5671
vn 0.7473 0.5462 0.3785
vn 0.2765 -0.9228 -0.2684
vn 0.5387 -0.7490 -0.3858
vn 0.0381 -0.7881 -0.6144
vn -0.1118 -0.8995 -0.4223
vn -0.3947 0.4922 0.7758
vn -0.0085 0.5314 0.8471
vn 0.1479 -0.9674 -0.2055
vn -0.2403 -0.9028 -0.3568
vn 0.5065 0.3421 0.7915
vn 0.8334 -0.1651 0.5275
vn -0.4911 -0.5759 -0.6536
vn -0.5116 -0.6290 -0.5853
vn -0.5404 -0.7194 -0.4364
vn -0.8415 -0.4461 -0.3046
vn -0.2750 0.3531 0.8943
vn 0.8187 0.4812 -0.3133
vn 0.7440 0.6498 0.1554
vn 0.0406 -0.9990 -0.0192
vn 0.0376 -0.0101 -0.9992
vn 0.5278 0.7888 0.3150
vn 0.4110 0.3750 -0.8310
vn -0.7232 -0.0374 -0.6896
vn -0.7042 0.4271 0.5671
vn -0.2765 -0.9228 -0.2684
vn 0.1118 -0.8995 -0.4223
vn 0.0331 -0.6930 0.7202
vn -0.3462 -0.9338 -0.0906
vn 0.3418 -0.3920 0.8541
vn 0.1559 -0.0942 0.9833
vn 0.2750 0.3531 0.8943
vn 0.8415 -0.4461 -0.3046
vn 0.7261 -0.6761 -0.1255
vn -0.0000 -0.3410 -0.9401
vn -0.0376 -0.0101 -0.9992
vn -0.7440 0.6498 0.1554
vn -0.8187 0.4812 -0.3133
vn -0.1633 -0.4271 0.8893
vn -0.0406 -0.9990 -0.0192
vn -0.4110 0.3750 -0.8310
vn -0.5278 0.7888 0.3150
vn -0.0000 0.9484 -0.3170
vn -0.0000 -0.9993 -0.0361
vn -0.0000 -0.9942 -0.1078
vn -0.0000 -0.9994 0.0355
vn 0.0664 -0.4380 0.8965
vn 0.2595 -0.7359 0.6254
vt 0.715227 0.094120
vt 0.757380 0.221251
vt 0.635484 0.165105
vt 0.631857 0.217428
vt 0.386700 0.207048
vt 0.377854 0.121677
vt 0.448552 0.058180
vt 0.472240 0.207048
vt 0.589522 0.142349
vt 0.592979 0.216244
vt 0.275264 0.115040
vt 0.276391 0.037996
vt 0.170978 0.119248
vt 0.101902 0.051898
vt 0.532498 0.117408
vt 0.561078 0.215272
vt 0.515119 0.879280
vt 0.506442 0.853357
vt 0.543842 0.821444
vt 0.617239 0.879280
vt 0.064142 0.395735
vt 0.002725 0.301980
vt 0.025146 0.207047
vt 0.277103 0.002725
vt 0.487191 0.026988
vt 0.064142 0.018359
vt 0.200412 0.862142
vt 0.015089 0.793233
vt 0.071614 0.748025
vt 0.199159 0.762514
vt 0.383942 0.490370
vt 0.326298 0.534140
vt 0.199161 0.516447
vt 0.200415 0.416819
vt 0.383939 0.788594
vt 0.326297 0.744823
vt 0.071615 0.530934
vt 0.015091 0.485726
vt 0.276390 0.376099
vt 0.277102 0.411369
vt 0.101902 0.362196
vt 0.768765 0.518439
vt 0.692243 0.451965
vt 0.765236 0.443059
vt 0.805380 0.505073
vt 0.067860 0.207047
vt 0.448550 0.355916
vt 0.487189 0.387107
vt 0.858774 0.923958
vt 0.756654 0.923958
vt 0.830050 0.866121
vt 0.867450 0.898035
vt 0.275263 0.299055
vt 0.170978 0.294846
vt 0.160315 0.207047
vt 0.548093 0.403879
vt 0.526595 0.311217
vt 0.585031 0.289792
vt 0.636518 0.378796
vt 0.632293 0.269874
vt 0.377853 0.292418
vt 0.559593 0.026225
vt 0.646323 0.056655
vt 0.274592 0.207047
vt 0.707569 0.345580
vt 0.908676 0.828361
vt 0.984501 0.864737
vt 0.192046 0.867591
vt 0.259393 0.882027
vt 0.270757 0.904847
vt 0.259202 0.933700
vt 0.692243 0.883563
vt 0.815002 0.831430
vt 0.133298 0.972822
vt 0.261000 0.982689
vt 0.886382 0.780547
vt 0.956108 0.827765
vt 0.383942 0.867591
vt 0.373136 0.911548
vt 0.344609 0.988976
vt 0.801514 0.416819
vt 0.862490 0.475327
vt 0.786278 0.586069
vt 0.829482 0.567823
vt 0.937872 0.278554
vt 0.807227 0.278554
vt 0.837183 0.194760
vt 0.934904 0.205316
vt 0.763870 0.677336
vt 0.925919 0.523763
vt 0.893364 0.644503
vt 0.819883 0.723990
vt 0.872200 0.709204
vt 0.389391 0.820060
vt 0.465217 0.783684
vt 0.936582 0.303113
vt 0.864658 0.364000
vt 0.855300 0.334362
vt 0.868343 0.312459
vt 0.487510 0.735870
vt 0.417784 0.783087
vt 0.752706 0.333368
vt 0.745227 0.288725
vt 0.859192 0.412718
vt 0.775347 0.412718
vt 0.558890 0.786752
vt 0.481255 0.522195
vt 0.417089 0.527597
vt 0.437329 0.445551
vt 0.482017 0.448325
vt 0.686793 0.635422
vt 0.608447 0.645563
vt 0.494443 0.588108
vt 0.540708 0.580424
vt 0.519343 0.513909
vt 0.693872 0.502167
vt 0.690904 0.575405
vt 0.593183 0.585961
vt 0.563227 0.502167
vt 0.481465 0.687064
vt 0.389391 0.602445
vt 0.586062 0.714939
vt 0.533947 0.730420
vt 0.516389 0.207049
vt 0.196978 0.639480
vt 0.359230 0.639481
vt 0.002725 0.639479
vt 0.548460 0.416819
vt 0.002725 0.112114
vt 0.692243 0.710661
vt 0.768071 0.775098
vt 0.681650 0.838886
vt 0.987275 0.412452
vt 0.657174 0.730420
s 1
f 59/1/1 61/2/2 60/3/3
f 60/3/3 61/2/2 58/4/4
f 5/5/5 3/6/6 79/7/7 80/8/8
f 57/9/9 60/3/3 58/4/4 56/10/10
f 3/6/6 6/11/11 78/12/12 79/7/7
f 6/11/11 1/13/13 81/14/14 78/12/12
f 120/15/15 57/9/9 56/10/10 99/16/16
f 9/17/17 62/18/18 65/19/19 55/20/20
f 9/21/17 55/22/20 98/23/21
f 10/7/22 13/12/23 88/24/23 89/25/24
f 13/12/23 8/14/25 91/26/26 88/24/23
f 18/27/27 92/28/28 96/29/29 21/30/30
f 82/31/31 84/32/32 51/33/33 94/34/34
f 90/35/35 18/27/27 21/30/30 100/36/36
f 94/34/34 51/33/33 85/37/37 86/38/38
f 106/39/39 50/40/39 87/21/40 107/41/41
f 25/42/42 101/43/43 44/44/44 45/45/45
f 107/41/41 87/21/40 97/23/46 109/46/46
f 110/47/47 83/48/48 50/40/39 106/39/39
f 93/49/49 28/50/50 37/51/51 34/52/52
f 24/53/53 11/39/54 19/41/55 32/54/56
f 32/54/56 19/41/55 15/46/57 27/55/58
f 103/56/59 108/57/60 31/58/61 29/59/62
f 31/58/61 56/10/10 58/4/4 33/60/63
f 30/61/64 17/47/65 11/39/54 24/53/53
f 103/62/59 29/63/62 57/9/9 120/15/15
f 108/57/60 99/16/16 56/10/10 31/58/61
f 27/55/58 20/64/66 24/53/53 32/54/56
f 59/65/1 33/60/63 61/2/2
f 34/52/52 37/51/51 41/66/67 114/67/68
f 26/68/69 14/69/70 111/70/71 36/71/72
f 28/50/50 104/72/73 35/73/74 37/51/51
f 102/74/75 26/68/69 36/71/72 112/75/76
f 115/76/77 113/77/78 114/67/68 41/66/67
f 36/71/72 111/70/71 38/78/79 40/79/80
f 112/75/76 36/71/72 40/79/80 39/80/81
f 37/51/51 35/73/74 115/76/77 41/66/67
f 45/45/45 44/44/44 48/81/82 49/82/83
f 16/83/84 25/42/42 45/45/45 42/84/85
f 116/85/86 117/86/86 119/87/86 118/88/86
f 43/89/87 42/84/85 46/90/88 47/91/89
f 44/92/44 43/89/87 47/91/89 48/93/82
f 42/84/85 45/45/45 49/82/83 46/90/88
f 62/18/18 66/94/90 69/95/91 65/19/19
f 53/96/92 64/97/93 62/98/18 9/99/17
f 67/100/94 69/95/91 66/94/90 68/101/95
f 64/97/93 68/102/95 66/103/90 62/98/18
f 63/104/96 67/105/94 68/102/95 64/97/93
f 65/19/19 69/95/91 67/100/94 63/106/96
f 73/107/97 77/108/98 76/109/99 72/110/100
f 95/111/101 71/112/102 70/113/103 7/114/104
f 7/114/104 70/113/103 73/107/97 52/115/105
f 121/116/106 123/117/106 124/118/106 122/119/106
f 71/112/102 75/120/107 74/121/108 70/113/103
f 72/122/100 76/123/99 75/120/107 71/112/102
f 70/113/103 74/121/108 77/108/98 73/107/97
f 20/64/66 6/11/11 3/6/6 5/5/5
f 27/55/58 1/13/13 6/11/11 20/64/66
f 1/13/13 27/55/58 15/46/57 81/14/14
f 12/8/109 10/7/22 89/25/24 2/124/109
f 54/125/110 51/33/33 84/32/32 22/126/111
f 8/14/25 109/46/46 97/23/46 91/26/26
f 54/125/110 105/127/112 85/37/37 51/33/33
f 52/115/105 73/107/97 72/110/100 101/128/43
f 54/125/110 21/30/30 96/29/29 105/127/112
f 12/8/109 2/124/109 83/48/48 110/47/47
f 54/125/110 22/126/111 100/36/36 21/30/30
f 93/26/49 4/23/113 28/129/50
f 33/60/63 58/4/4 61/2/2
f 5/5/5 80/8/8 17/47/65 30/61/64
f 20/64/66 5/5/5 30/61/64 24/53/53
f 95/130/101 16/83/84 42/84/85 43/89/87
f 101/131/43 95/130/101 43/89/87 44/92/44
f 55/20/20 65/19/19 63/106/96 23/132/114
f 23/133/114 63/104/96 64/97/93 53/96/92
f 101/134/43 72/122/100 71/112/102 95/111/101
f 29/63/62 59/1/1 60/3/3 57/9/9
f 29/59/62 31/58/61 33/60/63 59/65/1
