# Blender 4.2.0
# www.blender.org
o vine2
v 3.226207 0.353745 -4.193239
v 3.490269 0.478665 -3.284361
v 4.652357 0.452983 -3.288316
v 2.519234 1.323406 -4.695979
v 3.238140 1.550961 -3.004602
v 5.088337 1.502177 -3.065825
v 2.540961 2.328808 -4.840479
v 3.259868 2.556362 -3.149102
v 5.110065 2.507579 -3.210325
v 3.266901 3.331711 -4.896478
v 3.555190 3.494932 -3.717456
v 4.693052 3.430950 -3.991553
v 2.128500 1.318699 -4.574282
v 2.335862 1.423503 -3.941392
v 3.141422 1.265681 -3.942746
v 1.748035 2.048800 -4.982247
v 2.291651 2.213058 -3.804199
v 3.572739 1.953292 -3.844581
v 1.882347 2.735711 -5.140002
v 2.425963 2.899969 -3.961955
v 3.707053 2.640203 -4.002337
v 2.507247 3.341036 -5.235313
v 2.738627 3.484332 -4.414381
v 3.520169 3.288021 -4.603779
v -3.178466 1.380965 -4.082281
v -2.519967 1.466000 -3.965320
v -2.158657 1.441129 -4.701983
v -3.714003 2.070731 -3.796518
v -2.417346 2.224184 -3.722834
v -1.876892 2.179111 -4.912865
v -3.794439 2.780858 -3.859944
v -2.497782 2.934311 -3.786260
v -1.957328 2.889239 -4.976291
v -3.598336 3.484975 -4.341370
v -2.761101 3.596426 -4.155307
v -2.578527 3.545137 -4.961071
v -4.302837 1.437526 -1.235721
v -3.645943 1.542330 -1.345454
v -3.526022 1.384507 -2.142039
v -4.763421 2.167628 -0.921002
v -3.516968 2.331885 -1.281095
v -3.364051 2.072119 -2.553666
v -4.899161 2.854538 -1.077529
v -3.652709 3.018795 -1.437623
v -3.499791 2.759030 -2.710193
v -4.899326 3.459866 -1.709657
v -4.052916 3.603158 -1.814827
v -4.122512 3.406847 -2.615974
v 4.036897 0.427344 -3.239259
v 4.417521 0.575748 -4.102101
v 3.567801 0.352269 -4.863129
v 4.051477 1.461186 -2.449474
v 4.593937 1.693778 -4.204753
v 3.206438 1.325944 -5.374756
v 3.760704 2.433869 -2.410445
v 4.303160 2.666461 -4.165724
v 2.915663 2.298626 -5.335730
v 3.012330 3.291028 -2.901521
v 3.545640 3.493933 -3.985151
v 2.543235 3.215952 -4.525392
v -2.588665 1.380965 -4.126204
v -2.303088 1.466000 -4.730974
v -2.919199 1.441129 -5.272847
v -2.453365 2.070731 -3.534465
v -2.042177 2.224184 -4.766404
v -3.048798 2.179111 -5.600059
v -2.535668 2.780858 -3.473481
v -2.124479 2.934311 -4.705419
v -3.131100 2.889238 -5.539073
v -2.948806 3.484975 -3.788985
v -2.549669 3.596426 -4.548111
v -3.279339 3.545137 -4.935627
v -3.532316 1.384616 -2.133311
v -3.800987 1.471027 -2.612209
v -4.452416 1.340903 -2.482651
v -3.159486 1.986588 -1.863967
v -3.787102 2.122019 -2.730240
v -4.816978 1.907841 -2.493277
v -3.242978 2.552949 -1.714934
v -3.870593 2.688380 -2.581207
v -4.900470 2.474202 -2.344244
v -3.733283 3.052043 -1.538179
v -4.051371 3.170189 -2.165364
v -4.653384 3.008330 -1.887519
v -2.811813 1.380965 -4.897377
v -3.478128 1.466000 -4.955036
v -3.772176 1.441129 -4.189037
v -2.303950 2.070730 -5.229845
v -3.602004 2.224184 -5.187385
v -4.033971 2.179111 -3.953825
v -2.218168 2.780858 -5.173860
v -3.516223 2.934310 -5.131396
v -3.948190 2.889238 -3.897838
v -2.370473 3.484975 -4.676839
v -3.220985 3.596426 -4.787354
v -3.330836 3.545138 -3.968500
v -4.350171 0.671483 -2.751723
v -5.010956 0.777122 -2.633317
v -5.122358 0.618042 -1.829009
v -3.889684 1.407409 -3.074404
v -5.141714 1.572976 -2.696652
v -5.280719 1.311139 -1.412203
v -3.751009 2.099799 -2.918252
v -5.003041 2.265367 -2.540500
v -5.142046 2.003529 -1.256050
v -3.743335 2.709955 -2.281128
v -4.595188 2.854392 -2.165068
v -4.515520 2.656514 -1.358414
vn -0.8567 -0.3591 0.3703
vn -0.5504 -0.3209 0.7708
vn -0.5358 -0.0957 0.8389
vn -0.9079 -0.1190 0.4019
vn -0.0012 -0.2070 0.9784
vn 0.0263 -0.0198 0.9995
vn -0.5035 0.3619 0.7846
vn -0.9066 0.2852 0.3109
vn 0.0406 0.3841 0.9224
vn -0.3810 0.6047 0.6994
vn -0.8016 0.5867 0.1148
vn 0.1075 0.5927 0.7982
vn -0.9002 -0.1780 0.3975
vn -0.5865 -0.1615 0.7937
vn -0.5330 0.0625 0.8438
vn -0.9094 0.0690 0.4100
vn -0.0232 -0.1270 0.9916
vn 0.0360 0.0538 0.9979
vn -0.4241 0.5023 0.7536
vn -0.8408 0.4588 0.2874
vn 0.1177 0.4421 0.8892
vn -0.2634 0.7133 0.6495
vn -0.6888 0.7218 0.0681
vn 0.2173 0.6259 0.7490
vn -0.0502 -0.3530 0.9343
vn 0.4449 -0.3183 0.8371
vn 0.5137 -0.0935 0.8529
vn -0.0431 -0.1125 0.9927
vn 0.8751 -0.2094 0.4363
vn 0.9074 -0.0226 0.4198
vn 0.4821 0.3640 0.7969
vn -0.1217 0.2919 0.9487
vn 0.8470 0.3814 0.3702
vn 0.4615 0.6060 0.6479
vn -0.2491 0.5929 0.7657
vn 0.7667 0.5897 0.2539
vn 0.2574 -0.1780 0.9498
vn 0.6964 -0.1615 0.6992
vn 0.7540 0.0625 0.6539
vn 0.2685 0.0690 0.9608
vn 0.9768 -0.1270 0.1722
vn 0.9920 0.0538 0.1146
vn 0.6811 0.5023 0.5327
vn 0.1576 0.4588 0.8745
vn 0.8968 0.4421 0.0175
vn 0.6024 0.7133 0.3582
vn -0.0363 0.7218 0.6912
vn 0.7732 0.6259 -0.1021
vn 0.9352 -0.1780 0.3061
vn 0.9667 -0.1615 -0.1984
vn 0.9604 0.0625 -0.2714
vn 0.9505 0.0690 0.3029
vn 0.6801 -0.1270 -0.7220
vn 0.6402 0.0538 -0.7663
vn 0.8191 0.5023 -0.2770
vn 0.8175 0.4588 0.3482
vn 0.5068 0.4421 -0.7400
vn 0.6300 0.7133 -0.3070
vn 0.5579 0.7218 0.4097
vn 0.3390 0.6259 -0.7024
vn 0.8884 -0.3530 0.2934
vn 0.9245 -0.3183 -0.2098
vn 0.9577 -0.0935 -0.2720
vn 0.9467 -0.1125 0.3020
vn 0.6505 -0.2094 -0.7300
vn 0.6430 -0.0226 -0.7655
vn 0.8955 0.3640 -0.2562
vn 0.8836 0.2919 0.3662
vn 0.5794 0.3814 -0.7203
vn 0.7463 0.6060 -0.2754
vn 0.6736 0.5929 0.4412
vn 0.4461 0.5897 -0.6732
vn 0.8063 -0.1780 -0.5641
vn 0.4219 -0.1615 -0.8922
vn 0.3597 0.0625 -0.9310
vn 0.8130 0.0690 -0.5782
vn -0.1690 -0.1270 -0.9774
vn -0.2283 0.0538 -0.9721
vn 0.2703 0.5023 -0.8214
vn 0.7693 0.4588 -0.4446
vn -0.2874 0.4421 -0.8496
vn 0.1328 0.7133 -0.6882
vn 0.6626 0.7218 -0.2001
vn -0.3581 0.6259 -0.6928
vn -0.0335 -0.3530 -0.9350
vn -0.5179 -0.3183 -0.7940
vn -0.5878 -0.0935 -0.8036
vn -0.0458 -0.1125 -0.9926
vn -0.9106 -0.2094 -0.3563
vn -0.9412 -0.0226 -0.3370
vn -0.5514 0.3640 -0.7507
vn 0.0364 0.2919 -0.9558
vn -0.8767 0.3814 -0.2931
vn -0.5175 0.6060 -0.6041
vn 0.1797 0.5929 -0.7849
vn -0.7863 0.5897 -0.1844
vn -0.2686 -0.1780 -0.9467
vn -0.7046 -0.1615 -0.6910
vn -0.7616 0.0625 -0.6450
vn -0.2798 0.0690 -0.9576
vn -0.9788 -0.1270 -0.1607
vn -0.9932 0.0538 -0.1029
vn -0.6874 0.5023 -0.5246
vn -0.1679 0.4588 -0.8725
vn -0.8969 0.4421 -0.0069
vn -0.6066 0.7133 -0.3510
vn 0.0282 0.7218 -0.6916
vn -0.7719 0.6259 0.1112
vt 0.265313 0.000500
vt 0.500000 0.000500
vt 0.500000 0.333500
vt 0.000500 0.333500
vt 0.819874 0.000500
vt 0.999500 0.333500
vt 0.500000 0.666500
vt 0.000500 0.666500
vt 0.999500 0.666500
vt 0.500000 0.999500
vt 0.210525 0.999500
vt 0.765086 0.999500
s 1
f 1/1/1 2/2/2 5/3/3
f 5/3/3 4/4/4 1/1/1
f 2/2/2 3/5/5 6/6/6
f 6/6/6 5/3/3 2/2/2
f 4/4/4 5/3/3 8/7/7
f 8/7/7 7/8/8 4/4/4
f 5/3/3 6/6/6 9/9/9
f 9/9/9 8/7/7 5/3/3
f 7/8/8 8/7/7 11/10/10
f 11/10/10 10/11/11 7/8/8
f 8/7/7 9/9/9 12/12/12
f 12/12/12 11/10/10 8/7/7
f 13/1/13 14/2/14 17/3/15
f 17/3/15 16/4/16 13/1/13
f 14/2/14 15/5/17 18/6/18
f 18/6/18 17/3/15 14/2/14
f 16/4/16 17/3/15 20/7/19
f 20/7/19 19/8/20 16/4/16
f 17/3/15 18/6/18 21/9/21
f 21/9/21 20/7/19 17/3/15
f 19/8/20 20/7/19 23/10/22
f 23/10/22 22/11/23 19/8/20
f 20/7/19 21/9/21 24/12/24
f 24/12/24 23/10/22 20/7/19
f 25/1/25 26/2/26 29/3/27
f 29/3/27 28/4/28 25/1/25
f 26/2/26 27/5/29 30/6/30
f 30/6/30 29/3/27 26/2/26
f 28/4/28 29/3/27 32/7/31
f 32/7/31 31/8/32 28/4/28
f 29/3/27 30/6/30 33/9/33
f 33/9/33 32/7/31 29/3/27
f 31/8/32 32/7/31 35/10/34
f 35/10/34 34/11/35 31/8/32
f 32/7/31 33/9/33 36/12/36
f 36/12/36 35/10/34 32/7/31
f 37/1/37 38/2/38 41/3/39
f 41/3/39 40/4/40 37/1/37
f 38/2/38 39/5/41 42/6/42
f 42/6/42 41/3/39 38/2/38
f 40/4/40 41/3/39 44/7/43
f 44/7/43 43/8/44 40/4/40
f 41/3/39 42/6/42 45/9/45
f 45/9/45 44/7/43 41/3/39
f 43/8/44 44/7/43 47/10/46
f 47/10/46 46/11/47 43/8/44
f 44/7/43 45/9/45 48/12/48
f 48/12/48 47/10/46 44/7/43
f 49/1/49 50/2/50 53/3/51
f 53/3/51 52/4/52 49/1/49
f 50/2/50 51/5/53 54/6/54
f 54/6/54 53/3/51 50/2/50
f 52/4/52 53/3/51 56/7/55
f 56/7/55 55/8/56 52/4/52
f 53/3/51 54/6/54 57/9/57
f 57/9/57 56/7/55 53/3/51
f 55/8/56 56/7/55 59/10/58
f 59/10/58 58/11/59 55/8/56
f 56/7/55 57/9/57 60/12/60
f 60/12/60 59/10/58 56/7/55
f 61/1/61 62/2/62 65/3/63
f 65/3/63 64/4/64 61/1/61
f 62/2/62 63/5/65 66/6/66
f 66/6/66 65/3/63 62/2/62
f 64/4/64 65/3/63 68/7/67
f 68/7/67 67/8/68 64/4/64
f 65/3/63 66/6/66 69/9/69
f 69/9/69 68/7/67 65/3/63
f 67/8/68 68/7/67 71/10/70
f 71/10/70 70/11/71 67/8/68
f 68/7/67 69/9/69 72/12/72
f 72/12/72 71/10/70 68/7/67
f 73/1/73 74/2/74 77/3/75
f 77/3/75 76/4/76 73/1/73
f 74/2/74 75/5/77 78/6/78
f 78/6/78 77/3/75 74/2/74
f 76/4/76 77/3/75 80/7/79
f 80/7/79 79/8/80 76/4/76
f 77/3/75 78/6/78 81/9/81
f 81/9/81 80/7/79 77/3/75
f 79/8/80 80/7/79 83/10/82
f 83/10/82 82/11/83 79/8/80
f 80/7/79 81/9/81 84/12/84
f 84/12/84 83/10/82 80/7/79
f 85/1/85 86/2/86 89/3/87
f 89/3/87 88/4/88 85/1/85
f 86/2/86 87/5/89 90/6/90
f 90/6/90 89/3/87 86/2/86
f 88/4/88 89/3/87 92/7/91
f 92/7/91 91/8/92 88/4/88
f 89/3/87 90/6/90 93/9/93
f 93/9/93 92/7/91 89/3/87
f 91/8/92 92/7/91 95/10/94
f 95/10/94 94/11/95 91/8/92
f 92/7/91 93/9/93 96/12/96
f 96/12/96 95/10/94 92/7/91
f 97/1/97 98/2/98 101/3/99
f 101/3/99 100/4/100 97/1/97
f 98/2/98 99/5/101 102/6/102
f 102/6/102 101/3/99 98/2/98
f 100/4/100 101/3/99 104/7/103
f 104/7/103 103/8/104 100/4/100
f 101/3/99 102/6/102 105/9/105
f 105/9/105 104/7/103 101/3/99
f 103/8/104 104/7/103 107/10/106
f 107/10/106 106/11/107 103/8/104
f 104/7/103 105/9/105 108/12/108
f 108/12/108 107/10/106 104/7/103
