# Blender 4.2.0
# www.blender.org
o PrincessCut
v 0.506787 0.181859 0.506788
v -0.506788 0.181859 -0.506788
v 0.372412 0.256531 -0.215012
v 0.215012 0.256531 0.372412
v -0.372412 0.256531 0.215012
v -0.215012 0.256530 -0.372411
v 0.215012 0.256559 -0.372411
v 0.372411 0.256559 0.215012
v -0.215012 0.256559 0.372411
v -0.372411 0.256559 -0.215012
v -0.219758 0.281859 -0.219758
v 0.000000 0.281859 -0.310784
v 0.310784 0.281859 0.000000
v -0.000000 0.281859 0.310784
v -0.310784 0.281859 -0.000000
v 0.219758 0.281859 -0.219758
v 0.219758 0.281859 0.219758
v -0.219758 0.281859 0.219758
v 0.369972 -0.066328 0.000000
v -0.369973 -0.066328 0.000000
v -0.000000 -0.066328 0.369973
v -0.000000 -0.066328 -0.369972
v -0.506788 0.181859 0.506788
v 0.506788 0.181859 -0.506787
v -0.000000 -0.320619 0.000000
vn 0.4858 0.8741 -0.0000
vn -0.0000 0.8741 -0.4858
vn -0.4858 0.8741 -0.0000
vn -0.0000 0.8741 0.4858
vn 0.1652 0.9839 0.0684
vn 0.3800 0.9250 -0.0001
vn 0.1654 0.9839 -0.0685
vn 0.0684 0.9839 -0.1652
vn -0.0001 0.9250 -0.3800
vn -0.0685 0.9839 -0.1654
vn -0.1652 0.9839 -0.0684
vn -0.3800 0.9250 0.0001
vn -0.1654 0.9839 0.0685
vn -0.0684 0.9839 0.1652
vn 0.0001 0.9250 0.3800
vn 0.0685 0.9839 0.1654
vn 0.1691 0.9710 0.1692
vn 0.1692 0.9710 -0.1691
vn -0.1691 0.9710 -0.1692
vn -0.1692 0.9710 0.1691
vn -0.0000 1.0000 -0.0000
vn 0.8757 -0.4828 -0.0000
vn -0.8758 -0.4828 -0.0000
vn -0.0000 -0.4828 0.8758
vn -0.0000 -0.4828 -0.8757
vn 0.2431 -0.7994 0.5494
vn 0.5494 -0.7994 0.2431
vn -0.2431 -0.7994 0.5494
vn -0.5494 -0.7994 0.2431
vn 0.5494 -0.7994 -0.2431
vn 0.2431 -0.7994 -0.5494
vn -0.2431 -0.7994 -0.5494
vn -0.5494 -0.7994 -0.2431
vt 0.138403 0.063741
vt -0.000000 0.000000
vt 0.480787 0.000000
vt 0.342384 0.063741
vt 0.480787 0.480787
vt 0.417046 0.342384
vt 0.417046 0.138403
vt 0.000000 0.480787
vt 0.138403 0.417046
vt 0.342384 0.417046
vt 0.063741 0.138403
vt 0.063741 0.342384
vt 0.240394 0.092974
vt 0.136152 0.136152
vt 0.344635 0.136152
vt 0.387813 0.240394
vt 0.344635 0.344635
vt 0.240394 0.387813
vt 0.136152 0.344635
vt 0.092974 0.240394
vt 0.861763 0.043824
vt 0.861763 0.519213
vt 0.738524 0.289542
vt 0.480787 1.000000
vt 0.480787 0.519213
vt 0.608893 0.759607
vt 0.000000 0.961574
vt 0.000000 0.480787
vt 0.128106 0.721181
vt 0.480787 0.000000
vt 0.599461 0.100021
vt 0.338443 0.721181
vt 0.525882 0.287828
vt 0.819230 0.759607
vt 0.736214 0.584111
s 1
f 8/1/1 1/2/1 24/3/1 3/4/1
f 24/3/2 2/5/2 6/6/2 7/7/2
f 23/8/3 5/9/3 10/10/3 2/5/3
f 1/2/4 4/11/4 9/12/4 23/8/4
f 8/1/5 13/13/5 17/14/5
f 3/4/6 13/13/6 8/1/6
f 3/4/7 16/15/7 13/13/7
f 7/7/8 12/16/8 16/15/8
f 6/6/9 12/16/9 7/7/9
f 6/6/10 11/17/10 12/16/10
f 10/10/11 15/18/11 11/17/11
f 5/9/12 15/18/12 10/10/12
f 5/9/13 18/19/13 15/18/13
f 9/12/14 14/20/14 18/19/14
f 4/11/15 14/20/15 9/12/15
f 4/11/16 17/14/16 14/20/16
f 4/11/17 1/2/17 8/1/17 17/14/17
f 3/4/18 24/3/18 7/7/18 16/15/18
f 6/6/19 2/5/19 10/10/19 11/17/19
f 5/9/20 23/8/20 9/12/20 18/19/20
f 13/13/21 16/15/21 17/14/21
f 11/17/21 16/15/21 12/16/21
f 11/17/21 15/18/21 18/19/21
f 14/20/21 17/14/21 18/19/21
f 16/15/21 11/17/21 18/19/21 17/14/21
f 24/21/22 1/22/22 19/23/22
f 23/24/23 2/25/23 20/26/23
f 1/27/24 23/28/24 21/29/24
f 2/30/25 24/21/25 22/31/25
f 1/27/26 21/29/26 25/32/26
f 1/22/27 25/33/27 19/23/27
f 21/29/28 23/28/28 25/32/28
f 20/26/29 25/34/29 23/24/29
f 19/23/30 25/33/30 24/21/30
f 22/31/31 24/21/31 25/33/31
f 2/25/32 22/35/32 25/34/32
f 2/25/33 25/34/33 20/26/33
