# Blender 4.2.0
# www.blender.org
o EmeraldCut
v -0.310175 0.262787 -0.374833
v 0.300175 0.262787 -0.374832
v 0.300175 0.262787 0.374833
v -0.310175 0.262787 0.374833
v -0.227030 0.262787 -0.439379
v 0.217031 0.262787 -0.439379
v 0.217030 0.262787 0.439379
v -0.227031 0.262787 0.439379
v -0.427019 0.142273 -0.495560
v 0.417019 0.142273 -0.495559
v 0.417019 0.142273 0.495560
v -0.427019 0.142273 0.495559
v -0.312040 0.142273 -0.580895
v 0.302041 0.142273 -0.580894
v 0.302040 0.142273 0.580895
v -0.312041 0.142273 0.580895
v -0.379770 0.214422 -0.448570
v 0.369770 0.214422 -0.448569
v 0.369770 0.214422 0.448570
v -0.379770 0.214422 0.448570
v -0.277665 0.214422 -0.525814
v 0.267665 0.214422 -0.525813
v 0.267665 0.214422 0.525813
v -0.277665 0.214422 0.525813
v -0.005000 -0.296329 -0.168817
v -0.005000 -0.296329 0.168818
v 0.163873 -0.077028 -0.412341
v -0.173873 -0.077028 0.412342
v 0.163872 -0.077028 0.412342
v -0.173872 -0.077028 -0.412342
v -0.237110 -0.077028 0.365407
v 0.227110 -0.077028 0.365407
v 0.227111 -0.077028 -0.365407
v -0.237110 -0.077028 -0.365407
vn -0.0000 1.0000 -0.0000
vn -0.2643 0.9005 -0.3454
vn -0.4444 0.6711 -0.5934
vn 0.2643 0.9005 -0.3454
vn 0.4444 0.6711 -0.5934
vn 0.2643 0.9005 0.3454
vn 0.4444 0.6711 0.5934
vn -0.2643 0.9005 0.3454
vn -0.4444 0.6711 0.5934
vn -0.0000 0.8727 -0.4883
vn -0.0000 0.6068 -0.7948
vn -0.0000 0.8727 0.4883
vn -0.0000 0.6068 0.7948
vn 0.5707 0.8212 -0.0000
vn 0.8366 0.5479 -0.0000
vn -0.5707 0.8212 -0.0000
vn -0.8366 0.5479 -0.0000
vn 0.3546 -0.8037 -0.4778
vn 0.4230 -0.7045 -0.5699
vn -0.0000 -0.7431 -0.6692
vn -0.0000 -0.6094 -0.7929
vn -0.3546 -0.8037 -0.4778
vn -0.4230 -0.7045 -0.5699
vn -0.7559 -0.6546 -0.0000
vn -0.6868 -0.7269 -0.0000
vn -0.3546 -0.8037 0.4778
vn -0.4230 -0.7045 0.5699
vn -0.0000 -0.7431 0.6692
vn -0.0000 -0.6094 0.7929
vn 0.3546 -0.8037 0.4778
vn 0.4230 -0.7045 0.5699
vn 0.7559 -0.6546 -0.0000
vn 0.6868 -0.7269 -0.0000
vt 0.064108 0.524370
vt 0.064108 0.113058
vt 0.398983 0.113058
vt 0.398983 0.524370
vt 0.353365 0.559784
vt 0.109726 0.559784
vt 0.109726 0.077644
vt 0.353365 0.077644
vt 0.025924 0.564827
vt 0.081945 0.607207
vt 0.063084 0.637428
vt 0.000000 0.590608
vt 0.437167 0.564827
vt 0.381146 0.607207
vt 0.463091 0.590608
vt 0.400007 0.637428
vt 0.381146 0.030221
vt 0.437167 0.072602
vt 0.400007 0.000000
vt 0.463091 0.046820
vt 0.025924 0.072602
vt 0.081945 0.030221
vt 0.000000 0.046820
vt 0.063084 0.000000
vt 0.821986 0.689073
vt 0.694636 0.848687
vt 0.787290 0.669105
vt 0.926181 0.557726
vt 0.863097 0.521419
vt 0.601982 0.669105
vt 0.526175 0.521419
vt 0.567286 0.689073
vt 0.463091 0.557725
vt 0.909966 0.518557
vt 0.777858 0.521419
vt 0.777858 0.215394
vt 0.909966 0.103530
vt 0.623406 0.492537
vt 0.623406 0.351154
vt 0.744377 0.189860
vt 0.849091 0.057104
vt 0.565558 0.158452
vt 0.523966 -0.000000
vt 0.532076 0.172225
vt 0.463091 0.025042
vt 0.926181 0.979400
vt 0.821986 1.000000
vt 0.694636 0.992334
s 1
f 1/1/1 4/2/1 3/3/1 2/4/1
f 1/1/1 2/4/1 6/5/1 5/6/1
f 3/3/1 4/2/1 8/7/1 7/8/1
f 17/9/2 1/1/2 5/6/2 21/10/2
f 21/10/3 13/11/3 9/12/3 17/9/3
f 2/4/4 18/13/4 22/14/4 6/5/4
f 18/13/5 10/15/5 14/16/5 22/14/5
f 7/8/6 23/17/6 19/18/6 3/3/6
f 23/17/7 15/19/7 11/20/7 19/18/7
f 4/2/8 20/21/8 24/22/8 8/7/8
f 20/21/9 12/23/9 16/24/9 24/22/9
f 6/5/10 22/14/10 21/10/10 5/6/10
f 22/14/11 14/16/11 13/11/11 21/10/11
f 8/7/12 24/22/12 23/17/12 7/8/12
f 24/22/13 16/24/13 15/19/13 23/17/13
f 3/3/14 19/18/14 18/13/14 2/4/14
f 19/18/15 11/20/15 10/15/15 18/13/15
f 1/1/16 17/9/16 20/21/16 4/2/16
f 17/9/17 9/12/17 12/23/17 20/21/17
f 33/25/18 25/26/18 27/27/18
f 10/28/19 33/25/19 27/27/19 14/29/19
f 27/27/20 25/26/20 30/30/20
f 14/29/21 27/27/21 30/30/21 13/31/21
f 30/30/22 25/26/22 34/32/22
f 13/31/23 30/30/23 34/32/23 9/33/23
f 9/34/24 34/35/24 31/36/24 12/37/24
f 34/35/25 25/38/25 26/39/25 31/36/25
f 31/36/26 26/39/26 28/40/26
f 12/37/27 31/36/27 28/40/27 16/41/27
f 28/40/28 26/39/28 29/42/28
f 16/41/29 28/40/29 29/42/29 15/43/29
f 29/42/30 26/39/30 32/44/30
f 15/43/31 29/42/31 32/44/31 11/45/31
f 11/46/32 32/47/32 33/25/32 10/28/32
f 32/47/33 26/48/33 25/26/33 33/25/33
