# Blender 4.2.0
# www.blender.org
o TeardropCut
v 0.169244 0.252648 -0.267493
v -0.168407 0.252648 -0.267579
v -0.238379 0.252648 -0.001901
v -0.168492 0.252649 0.166943
v 0.169159 0.252649 0.167028
v 0.239131 0.252648 -0.001780
v 0.000316 0.252649 0.236915
v 0.245264 0.219924 -0.193125
v 0.126228 0.205017 0.302206
v -0.303670 0.205017 0.124012
v 0.304360 0.205017 0.124162
v -0.244450 0.219924 -0.193246
v -0.125626 0.205017 0.302144
v 0.445916 0.099189 -0.001763
v 0.000299 0.099189 0.443700
v -0.445164 0.099189 -0.001917
v 0.315366 0.099189 0.313258
v -0.314723 0.099189 0.313150
v 0.411959 0.110527 0.168762
v -0.170226 0.110528 0.409743
v -0.411207 0.110527 -0.172442
v 0.170776 0.110528 0.409827
v 0.412043 0.110527 -0.172239
v -0.411291 0.110527 0.168559
v 0.411979 0.082811 0.168715
v -0.170179 0.082811 0.409763
v -0.411227 0.082811 -0.172395
v 0.170823 0.082811 0.409807
v 0.412023 0.082811 -0.172287
v -0.411271 0.082811 0.168607
v 0.000419 0.252648 -0.513959
v 0.290583 0.086405 -0.478735
v -0.289766 0.086900 -0.478845
v 0.169417 0.114143 -0.653207
v -0.168601 0.114547 -0.653271
v 0.000408 0.096669 -0.827689
v 0.073542 0.200778 -0.626889
v -0.072728 0.200778 -0.626925
v -0.168601 0.072374 -0.653271
v 0.169417 0.071969 -0.653207
v 0.000368 -0.328961 0.002547
vn 0.4972 0.8577 -0.1308
vn 0.3714 0.9156 0.1539
vn 0.1538 0.9156 0.3715
vn -0.1539 0.9156 0.3714
vn -0.3715 0.9156 0.1538
vn -0.4971 0.8578 -0.1309
vn -0.4215 0.8030 0.4213
vn -0.5943 0.8009 -0.0733
vn 0.5944 0.8009 -0.0731
vn 0.4213 0.8030 0.4215
vn -0.0001 0.8030 0.5959
vn -0.0766 0.7647 0.6398
vn 0.0763 0.7647 0.6398
vn 0.3983 0.7647 0.5065
vn 0.5064 0.7647 0.3985
vn 0.6398 0.7647 0.0766
vn 0.5524 0.8318 -0.0544
vn -0.5525 0.8317 -0.0547
vn -0.6398 0.7647 0.0763
vn -0.5065 0.7647 0.3983
vn -0.3985 0.7647 0.5064
vn -0.9807 0.0004 -0.1953
vn -0.9808 -0.0004 0.1949
vn -0.8316 0.0004 0.5554
vn -0.5557 -0.0004 0.8314
vn -0.1953 0.0004 0.9807
vn 0.1949 -0.0004 0.9808
vn 0.5554 0.0004 0.8316
vn 0.8314 -0.0004 0.5557
vn 0.9807 0.0004 0.1953
vn 0.9808 -0.0004 -0.1949
vn -0.0000 1.0000 -0.0000
vn -0.5508 0.7866 -0.2790
vn -0.5935 0.7495 -0.2934
vn -0.4788 0.6959 -0.5353
vn 0.4807 0.6946 -0.5352
vn 0.5950 0.7479 -0.2943
vn 0.5508 0.7862 -0.2802
vn -0.9296 -0.0000 -0.3685
vn 0.9297 -0.0000 -0.3684
vn -0.8213 -0.0000 -0.5705
vn -0.7182 -0.0000 -0.6959
vn 0.7183 -0.0000 -0.6958
vn 0.8214 -0.0000 -0.5704
vn 0.0001 0.8954 -0.4452
vn -0.5848 0.7665 -0.2654
vn 0.5860 0.7655 -0.2658
vn -0.3179 0.9228 -0.2178
vn 0.3181 0.9227 -0.2179
vn 0.6916 -0.7190 0.0686
vn -0.0695 -0.7159 0.6948
vn -0.6909 -0.7197 -0.0684
vn 0.4417 -0.7167 0.5397
vn -0.5393 -0.7171 0.4415
vn -0.6916 -0.7190 0.0684
vn -0.4419 -0.7166 0.5396
vn 0.0693 -0.7159 0.6948
vn 0.5391 -0.7171 0.4416
vn 0.6909 -0.7197 -0.0682
vn -0.6263 -0.7356 -0.2580
vn 0.6267 -0.7357 -0.2570
vn -0.5579 -0.7641 -0.3239
vn -0.3244 -0.8418 -0.4316
vn 0.3227 -0.8423 -0.4318
vn 0.5573 -0.7646 -0.3238
vt 0.363954 0.251156
vt 0.298714 0.135050
vt 0.365437 0.199705
vt 0.217432 0.099847
vt 0.279086 0.069312
vt 0.135064 0.132431
vt 0.157020 0.067357
vt 0.099859 0.213714
vt 0.069321 0.152289
vt 0.132441 0.296081
vt 0.067364 0.274356
vt 0.246381 0.365022
vt 0.194913 0.364851
vt -0.000000 0.212467
vt 0.060788 0.366177
vt 0.371093 0.065704
vt 0.219419 -0.000000
vt 0.065707 0.060791
vt 0.017736 0.130081
vt 0.136476 0.015086
vt 0.301750 0.017733
vt 0.416742 0.136470
vt 0.130077 0.414093
vt 0.015085 0.295355
vt 0.792548 0.388960
vt 0.787459 0.307201
vt 0.800894 0.307291
vt 0.800068 0.472378
vt 0.786633 0.472287
vt 0.791763 0.544658
vt 0.226750 0.503567
vt 0.186832 0.548525
vt 0.178069 0.538341
vt 0.122721 0.593388
vt 0.064115 0.654470
vt 0.055354 0.644284
vt -0.000000 0.699325
vt 0.240066 0.503567
vt 0.240066 0.563683
vt 0.226750 0.561897
vt 0.786633 0.393207
vt 0.786249 0.469470
vt 0.778871 0.473437
vt 0.758497 0.315858
vt 0.765890 0.311892
vt 0.388245 0.393915
vt 0.275729 0.479923
vt 0.400976 0.458047
vt 0.376670 0.499756
vt 0.494379 0.503567
vt 0.494379 0.385775
vt 0.451908 0.408721
vt 0.477825 0.284227
vt 0.799633 0.161867
vt 0.692484 0.170484
vt 0.786633 0.080296
vt 0.807076 0.080398
vt 0.795693 0.000000
vt 0.640905 0.082630
vt 0.629671 0.088699
vt 0.558118 -0.000000
vt 0.494379 0.444917
vt 0.226750 0.777726
vt 1.000000 0.402971
vt 0.753179 0.535294
vt 0.696692 0.578406
vt 0.799443 0.594978
vt 0.494379 0.079582
s 1
f 1/1/1 6/2/1 8/3/1
f 5/4/2 11/5/2 6/2/2
f 5/4/3 7/6/3 9/7/3
f 4/8/4 13/9/4 7/6/4
f 3/10/5 10/11/5 4/8/5
f 2/12/6 12/13/6 3/10/6
f 4/8/7 10/11/7 18/14/7 13/9/7
f 3/10/8 12/13/8 16/15/8 10/11/8
f 6/2/9 11/5/9 14/16/9 8/3/9
f 5/4/10 9/7/10 17/17/10 11/5/10
f 7/6/11 13/9/11 15/18/11 9/7/11
f 13/9/12 20/19/12 15/18/12
f 9/7/13 15/18/13 22/20/13
f 9/7/14 22/20/14 17/17/14
f 11/5/15 17/17/15 19/21/15
f 11/5/16 19/21/16 14/16/16
f 8/3/17 14/16/17 23/22/17
f 12/13/18 21/23/18 16/15/18
f 10/11/19 16/15/19 24/24/19
f 10/11/20 24/24/20 18/14/20
f 13/9/21 18/14/21 20/19/21
f 16/25/22 21/26/22 27/27/22
f 16/25/23 30/28/23 24/29/23
f 18/30/24 24/29/24 30/28/24
f 18/31/25 26/32/25 20/33/25
f 15/34/26 20/33/26 26/32/26
f 15/34/27 28/35/27 22/36/27
f 17/37/28 22/36/28 28/35/28
f 17/38/29 25/39/29 19/40/29
f 14/41/30 19/42/30 25/43/30
f 14/41/31 29/44/31 23/45/31
f 1/1/32 5/4/32 6/2/32
f 4/8/32 7/6/32 5/4/32
f 2/12/32 3/10/32 4/8/32
f 1/1/32 31/46/32 2/12/32
f 1/1/32 2/12/32 4/8/32 5/4/32
f 12/13/33 33/47/33 21/23/33
f 33/47/34 38/48/34 35/49/34
f 35/49/35 38/48/35 36/50/35
f 34/51/36 36/50/36 37/52/36
f 32/53/37 34/51/37 37/52/37
f 8/3/38 23/22/38 32/53/38
f 21/26/39 33/54/39 27/27/39
f 23/45/40 29/44/40 32/55/40
f 33/54/41 35/56/41 39/57/41
f 35/56/42 36/58/42 39/57/42
f 34/59/43 40/60/43 36/61/43
f 32/55/44 40/60/44 34/59/44
f 31/46/45 37/52/45 36/50/45 38/48/45
f 2/12/46 38/48/46 33/47/46 12/13/46
f 1/1/47 8/3/47 32/53/47 37/52/47
f 2/12/48 31/46/48 38/48/48
f 1/1/49 37/52/49 31/46/49
f 14/41/50 25/43/50 41/62/50
f 15/34/51 26/32/51 41/63/51
f 16/25/52 27/27/52 41/64/52
f 17/65/53 28/66/53 41/62/53
f 18/30/54 30/28/54 41/64/54
f 30/28/55 16/25/55 41/64/55
f 26/67/56 18/30/56 41/64/56
f 28/35/57 15/34/57 41/63/57
f 25/43/58 17/65/58 41/62/58
f 29/44/59 14/41/59 41/62/59
f 27/27/60 33/54/60 41/64/60
f 32/55/61 29/44/61 41/62/61
f 33/54/62 39/57/62 41/64/62
f 39/68/63 36/61/63 41/62/63
f 36/61/64 40/60/64 41/62/64
f 40/60/65 32/55/65 41/62/65
